<svg xmlns="http://www.w3.org/2000/svg" viewBox="0 0 800 400">
  <!-- Definitions -->
  <defs>
    <!-- Background gradient -->
    <linearGradient id="backgroundGradient" x1="0%" y1="100%" x2="100%" y2="0%">
      <stop offset="0%" style="stop-color:#f8f9fa"/>
      <stop offset="100%" style="stop-color:#e9ecef"/>
    </linearGradient>
    
    <!-- Progress gradient -->
    <linearGradient id="progressGradient" x1="0%" y1="100%" x2="100%" y2="0%">
      <stop offset="0%" style="stop-color:#4682B4"/>
      <stop offset="100%" style="stop-color:#90EE90"/>
    </linearGradient>
    
    <!-- Drop shadow -->
    <filter id="shadow" x="-20%" y="-20%" width="140%" height="140%">
      <feGaussianBlur in="SourceAlpha" stdDeviation="3"/>
      <feOffset dx="2" dy="2"/>
      <feComponentTransfer>
        <feFuncA type="linear" slope="0.3"/>
      </feComponentTransfer>
      <feMerge>
        <feMergeNode/>
        <feMergeNode in="SourceGraphic"/>
      </feMerge>
    </filter>
  </defs>

  <!-- Background -->
  <rect x="0" y="0" width="800" height="400" fill="url(#backgroundGradient)"/>
  
  <!-- Connecting line/arrow -->
  <path d="M200,300 Q400,250 600,100" 
    stroke="url(#progressGradient)" 
    stroke-width="4" 
    fill="none" 
    marker-end="url(#arrowhead)"/>

  <!-- Growth indicators -->
  <g transform="translate(300,200)">
    <path d="M-5,0 L5,0 L0,-10 Z" fill="#90EE90" opacity="0.3"/>
    <path d="M-8,0 L8,0 L0,-16 Z" fill="#90EE90" opacity="0.3"/>
  </g>
  <g transform="translate(400,150)">
    <path d="M-8,0 L8,0 L0,-16 Z" fill="#90EE90" opacity="0.4"/>
    <path d="M-12,0 L12,0 L0,-24 Z" fill="#90EE90" opacity="0.4"/>
  </g>
  <g transform="translate(500,100)">
    <path d="M-12,0 L12,0 L0,-24 Z" fill="#90EE90" opacity="0.5"/>
    <path d="M-16,0 L16,0 L0,-32 Z" fill="#90EE90" opacity="0.5"/>
  </g>

  <!-- Build Product Section -->
  <g transform="translate(200,300)" filter="url(#shadow)">
    <!-- Gear icon -->
    <circle cx="0" cy="0" r="40" fill="#4682B4"/>
    <g transform="translate(0,0)" fill="white">
      <!-- Gear teeth -->
      <rect x="-5" y="-45" width="10" height="15"/>
      <rect x="-5" y="30" width="10" height="15"/>
      <rect x="-45" y="-5" width="15" height="10"/>
      <rect x="30" y="-5" width="15" height="10"/>
      <!-- Diagonal teeth -->
      <rect transform="rotate(45)" x="-5" y="-45" width="10" height="15"/>
      <rect transform="rotate(45)" x="-5" y="30" width="10" height="15"/>
      <rect transform="rotate(-45)" x="-5" y="-45" width="10" height="15"/>
      <rect transform="rotate(-45)" x="-5" y="30" width="10" height="15"/>
    </g>
    <circle cx="0" cy="0" r="15" fill="white"/>
    
    <!-- Label -->
    <text x="0" y="70" 
      text-anchor="middle" 
      font-family="Arial" 
      font-weight="bold" 
      fill="#333">
      Build Product
    </text>
    <text x="0" y="85" 
      text-anchor="middle" 
      font-family="Arial" 
      font-size="12" 
      fill="#666">
      Foundation Phase
    </text>
  </g>

  <!-- Scale Product Section -->
  <g transform="translate(600,100)" filter="url(#shadow)">
    <!-- Growth graph -->
    <rect x="-40" y="-40" width="80" height="80" fill="#90EE90" rx="5"/>
    <path d="M-30,30 L-10,10 L10,-10 L30,-30" 
      stroke="white" 
      stroke-width="4" 
      fill="none"
      stroke-linecap="round"/>
    <circle cx="-30" cy="30" r="3" fill="white"/>
    <circle cx="-10" cy="10" r="3" fill="white"/>
    <circle cx="10" cy="-10" r="3" fill="white"/>
    <circle cx="30" cy="-30" r="3" fill="white"/>
    
    <!-- Label -->
    <text x="0" y="70" 
      text-anchor="middle" 
      font-family="Arial" 
      font-weight="bold" 
      fill="#333">
      Scale Product
    </text>
    <text x="0" y="85" 
      text-anchor="middle" 
      font-family="Arial" 
      font-size="12" 
      fill="#666">
      Growth Phase
    </text>
  </g>

  <!-- Arrow marker definition -->
  <defs>
    <marker id="arrowhead" 
      markerWidth="10" 
      markerHeight="7" 
      refX="9" 
      refY="3.5" 
      orient="auto">
      <polygon points="0 0, 10 3.5, 0 7" fill="#90EE90"/>
    </marker>
  </defs>
</svg>