<svg xmlns="http://www.w3.org/2000/svg" viewBox="0 0 800 400">
  <defs>
    <!-- Gradients -->
    <linearGradient id="supportGradient" x1="0%" y1="100%" x2="0%" y2="0%">
      <stop offset="0%" style="stop-color:#1a365d"/>
      <stop offset="100%" style="stop-color:#2c5282"/>
    </linearGradient>
    
    <linearGradient id="pillarGradient" x1="0%" y1="0%" x2="100%" y2="0%">
      <stop offset="0%" style="stop-color:#2c5282"/>
      <stop offset="50%" style="stop-color:#4a69bd"/>
      <stop offset="100%" style="stop-color:#2c5282"/>
    </linearGradient>
    
    <!-- Network Pattern -->
    <pattern id="networkPattern" x="0" y="0" width="40" height="40" patternUnits="userSpaceOnUse">
      <circle cx="20" cy="20" r="1" fill="#ffffff" opacity="0.3"/>
      <line x1="20" y1="20" x2="40" y2="20" stroke="#ffffff" stroke-width="0.5" opacity="0.2"/>
      <line x1="20" y1="20" x2="20" y2="40" stroke="#ffffff" stroke-width="0.5" opacity="0.2"/>
    </pattern>
    
    <!-- Drop Shadow -->
    <filter id="shadow" x="-20%" y="-20%" width="140%" height="140%">
      <feGaussianBlur in="SourceAlpha" stdDeviation="3"/>
      <feOffset dx="2" dy="2"/>
      <feComponentTransfer>
        <feFuncA type="linear" slope="0.3"/>
      </feComponentTransfer>
      <feMerge>
        <feMergeNode/>
        <feMergeNode in="SourceGraphic"/>
      </feMerge>
    </filter>
  </defs>

  <!-- Background Structure -->
  <path d="M50,350 L750,350 L650,150 L150,150 Z" 
    fill="url(#supportGradient)"
    opacity="0.9"/>
  
  <!-- Network Pattern Overlay -->
  <path d="M50,350 L750,350 L650,150 L150,150 Z" 
    fill="url(#networkPattern)"
    opacity="0.5"/>

  <!-- Support Pillars -->
  <g transform="translate(200,200)">
    <rect x="-30" y="0" width="60" height="150" 
      fill="url(#pillarGradient)"
      filter="url(#shadow)"/>
  </g>
  
  <g transform="translate(400,200)">
    <rect x="-30" y="0" width="60" height="150" 
      fill="url(#pillarGradient)"
      filter="url(#shadow)"/>
  </g>
  
  <g transform="translate(600,200)">
    <rect x="-30" y="0" width="60" height="150" 
      fill="url(#pillarGradient)"
      filter="url(#shadow)"/>
  </g>

  <!-- Central Icon Group -->
  <g transform="translate(400,250)" filter="url(#shadow)">
    <!-- Outer Ring with Cogs -->
    <circle cx="0" cy="0" r="60" 
      fill="none" 
      stroke="#4a69bd" 
      stroke-width="8"/>
    
    <!-- Cog teeth around the ring -->
    {[...Array(12)].map((_, i) => `
      <rect 
        transform="rotate(${i * 30})"
        x="-4"
        y="-68"
        width="8"
        height="16"
        fill="#4a69bd"
      />
    `).join('')}
    
    <!-- Support Hands -->
    <path d="M-40,-20 Q-20,-40 0,-20 Q20,-40 40,-20" 
      stroke="#ffffff" 
      stroke-width="6" 
      fill="none" 
      stroke-linecap="round"/>
    
    <!-- Network Nodes -->
    <circle cx="-25" cy="10" r="8" fill="#ffffff"/>
    <circle cx="0" cy="10" r="8" fill="#ffffff"/>
    <circle cx="25" cy="10" r="8" fill="#ffffff"/>
    
    <!-- Connecting Lines -->
    <line x1="-25" y1="10" x2="0" y2="10" stroke="#ffffff" stroke-width="3"/>
    <line x1="0" y1="10" x2="25" y2="10" stroke="#ffffff" stroke-width="3"/>
  </g>

  <!-- Title and Caption -->
  <g transform="translate(400,120)" filter="url(#shadow)">
    <text x="0" y="0" 
      text-anchor="middle" 
      font-family="Arial" 
      font-weight="bold" 
      font-size="24" 
      fill="#ffffff">
      Technical Operations Support
    </text>
  </g>
  
  <g transform="translate(400,365)">
    <text x="0" y="0" 
      text-anchor="middle" 
      font-family="Arial" 
      font-style="italic" 
      font-size="16" 
      fill="#ffffff">
      Ensuring long-term success and scalability
    </text>
  </g>
</svg>